<?xml version="1.0"?>
<svg version="1.1" xmlns="http://www.w3.org/2000/svg" width="150px" height="110px" style=""><path fill="#34313D" d="M1.51904296875,60.7685546875q0-0.87158203125,0.59765625-1.108154296875t1.294921875-0.236572265625q1.22021484375,0,2.06689453125,1.095703125t1.606201171875,2.403076171875t1.506591796875,2.403076171875t1.76806640625,1.095703125q0.77197265625,0,1.406982421875-0.385986328125t1.095703125-0.97119140625t0.709716796875-1.31982421875t0.2490234375-1.456787109375q0-1.892578125-0.759521484375-3.90966796875t-1.9423828125-4.15869140625t-2.502685546875-4.3828125t-2.490234375-4.55712890625t-1.9423828125-4.718994140625t-0.77197265625-4.843505859375q0-3.66064453125,2.19140625-5.677734375t5.77734375-2.01708984375q1.22021484375,0,2.46533203125,0.3486328125t2.291015625,1.0458984375t1.705810546875,1.71826171875t0.659912109375,2.390625q0,0.4482421875-0.659912109375,0.585205078125t-0.958740234375,0.136962890625q-0.4482421875,0-0.97119140625-0.112060546875t-0.67236328125-0.610107421875t-0.42333984375-1.1455078125t-0.684814453125-1.207763671875t-0.97119140625-0.97119140625t-1.232666015625-0.410888671875q-1.12060546875,0-1.905029296875,0.460693359375t-1.27001953125,1.232666015625t-0.72216796875,1.730712890625t-0.236572265625,1.979736328125q0,2.390625,0.82177734375,4.818603515625t2.0419921875,4.8310546875t2.652099609375,4.743896484375t2.652099609375,4.55712890625t2.0419921875,4.3330078125t0.82177734375,4.00927734375q0,1.693359375-0.796875,2.86376953125t-2.01708984375,1.905029296875t-2.701904296875,1.07080078125t-2.901123046875,0.336181640625q-1.51904296875,0-3.11279296875-0.610107421875t-2.86376953125-1.680908203125t-2.091796875-2.502685546875t-0.82177734375-3.100341796875z M23.922934570312,55.71337890625q0-1.79296875,0.460693359375-3.598388671875t1.431884765625-3.2373046875t2.477783203125-2.328369140625t3.548583984375-0.896484375q0.87158203125,0,1.91748046875,0.211669921875t1.929931640625,0.67236328125t1.494140625,1.1953125t0.610107421875,1.805419921875q0,0.67236328125-0.3486328125,0.896484375t-0.92138671875,0.22412109375l-0.17431640625-0.2490234375t-0.485595703125-0.635009765625t-0.659912109375-0.82177734375t-0.67236328125-0.734619140625q-1.02099609375-1.02099609375-1.91748046875-1.095703125l-0.19921875,0q-0.7470703125,0-1.39453125,0.4482421875q-0.72216796875,0.5478515625-1.282470703125,1.5439453125t-0.933837890625,2.11669921875t-0.585205078125,2.26611328125t-0.211669921875,1.892578125q0,1.02099609375,0.236572265625,2.328369140625t0.796875,2.477783203125t1.41943359375,1.96728515625t2.203857421875,0.796875q1.22021484375,0,2.21630859375-0.59765625t1.905029296875-1.332275390625t1.780517578125-1.31982421875t1.79296875-0.585205078125q0.3984375,0,0.809326171875,0.099609375t0.410888671875,0.52294921875l0,0.1494140625q-0.4482421875,1.17041015625-1.51904296875,2.06689453125t-2.403076171875,1.556396484375t-2.76416015625,0.983642578125t-2.552490234375,0.32373046875q-2.091796875,0-3.673095703125-0.684814453125t-2.627197265625-1.880126953125t-1.581298828125-2.876220703125t-0.535400390625-3.673095703125z M45.654462890625,55.61376953125q0-2.291015625,0.535400390625-4.494873046875t0.908935546875-4.395263671875q0.099609375-0.57275390625,0.784423828125-0.709716796875t1.157958984375-0.136962890625q0.82177734375,0,1.31982421875,0.2490234375q0.19921875,0.099609375,0.37353515625,0.22412109375t0.17431640625,0.32373046875q0,2.1416015625-0.510498046875,4.18359375t-0.510498046875,4.3330078125q0,0.77197265625,0.112060546875,1.456787109375t0.211669921875,1.357177734375l0.1494140625,0.72216796875q0,0.19921875,0.02490234375,0.3486328125t0.07470703125,0.3486328125q0,0.4482421875-0.635009765625,0.610107421875t-1.108154296875,0.161865234375q-0.72216796875,0-1.332275390625-0.286376953125t-0.958740234375-0.983642578125l-0.3486328125-0.72216796875q-0.298828125-0.57275390625-0.298828125-1.282470703125t-0.12451171875-1.307373046875z M47.248212890625,40.62255859375l0-0.47314453125q0-1.17041015625,0.585205078125-2.091796875t1.755615234375-0.92138671875q0.1494140625,0,0.286376953125,0.02490234375t0.286376953125,0.02490234375q0.298828125,0.0498046875,0.784423828125,0.236572265625t0.485595703125,0.585205078125l0,0.0498046875q-0.099609375,0.19921875-0.12451171875,0.410888671875t-0.12451171875,0.361083984375l0.0498046875-0.0498046875q-0.298828125,0.77197265625-0.485595703125,1.2451171875t-0.410888671875,0.759521484375t-0.560302734375,0.410888671875t-0.958740234375,0.12451171875q-0.099609375,0-0.3486328125-0.02490234375t-0.535400390625-0.099609375t-0.485595703125-0.19921875t-0.19921875-0.37353515625z M56.528569335937,49.78662109375q0-1.02099609375,0.59765625-1.755615234375t1.456787109375-1.1953125t1.880126953125-0.684814453125t1.892578125-0.22412109375q0.67236328125,0,1.79296875,0.19921875t2.19140625,0.59765625t1.855224609375,1.0458984375t0.784423828125,1.51904296875q0,0.3984375-0.298828125,0.709716796875t-0.62255859375,0.311279296875q-0.67236328125,0-1.22021484375-0.435791015625t-1.133056640625-0.92138671875t-1.282470703125-0.92138671875t-1.56884765625-0.435791015625t-1.581298828125,0.560302734375t-0.709716796875,1.481689453125q0,1.51904296875,1.07080078125,2.975830078125t2.353271484375,3.06298828125t2.353271484375,3.374267578125t1.07080078125,3.90966796875q0,0.92138671875-0.385986328125,1.556396484375t-1.02099609375,1.033447265625t-1.431884765625,0.610107421875t-1.5439453125,0.211669921875q-0.82177734375,0-1.91748046875-0.385986328125t-2.06689453125-1.02099609375t-1.631103515625-1.481689453125t-0.659912109375-1.76806640625q0-0.4482421875,0.635009765625-0.57275390625t0.933837890625-0.12451171875q0.1494140625,0,0.460693359375,0.099609375t0.610107421875,0.22412109375t0.535400390625,0.27392578125t0.186767578125,0.32373046875q0.2490234375,0.298828125,0.759521484375,0.884033203125t1.02099609375,0.9462890625t0.896484375,0.261474609375t0.385986328125-1.12060546875q0-1.9423828125-1.0458984375-3.573486328125t-2.278564453125-3.1875t-2.278564453125-3.087890625t-1.0458984375-3.274658203125z M74.07650390625,49.78662109375q0-1.02099609375,0.59765625-1.755615234375t1.456787109375-1.1953125t1.880126953125-0.684814453125t1.892578125-0.22412109375q0.67236328125,0,1.79296875,0.19921875t2.19140625,0.59765625t1.855224609375,1.0458984375t0.784423828125,1.51904296875q0,0.3984375-0.298828125,0.709716796875t-0.62255859375,0.311279296875q-0.67236328125,0-1.22021484375-0.435791015625t-1.133056640625-0.92138671875t-1.282470703125-0.92138671875t-1.56884765625-0.435791015625t-1.581298828125,0.560302734375t-0.709716796875,1.481689453125q0,1.51904296875,1.07080078125,2.975830078125t2.353271484375,3.06298828125t2.353271484375,3.374267578125t1.07080078125,3.90966796875q0,0.92138671875-0.385986328125,1.556396484375t-1.02099609375,1.033447265625t-1.431884765625,0.610107421875t-1.5439453125,0.211669921875q-0.82177734375,0-1.91748046875-0.385986328125t-2.06689453125-1.02099609375t-1.631103515625-1.481689453125t-0.659912109375-1.76806640625q0-0.4482421875,0.635009765625-0.57275390625t0.933837890625-0.12451171875q0.1494140625,0,0.460693359375,0.099609375t0.610107421875,0.22412109375t0.535400390625,0.27392578125t0.186767578125,0.32373046875q0.2490234375,0.298828125,0.759521484375,0.884033203125t1.02099609375,0.9462890625t0.896484375,0.261474609375t0.385986328125-1.12060546875q0-1.9423828125-1.0458984375-3.573486328125t-2.278564453125-3.1875t-2.278564453125-3.087890625t-1.0458984375-3.274658203125z M91.126391601562,56.6845703125q0-1.41943359375,0.361083984375-2.926025390625t1.1455078125-2.71435546875t1.979736328125-1.96728515625t2.888671875-0.759521484375q1.27001953125,0,2.677001953125,0.435791015625t2.577392578125,1.2451171875t1.905029296875,1.979736328125t0.734619140625,2.61474609375q0,1.7431640625-0.635009765625,3.31201171875t-1.780517578125,2.801513671875t-2.677001953125,1.9423828125t-3.324462890625,0.709716796875q-1.46923828125,0-2.56494140625-0.535400390625t-1.830322265625-1.431884765625t-1.095703125-2.11669921875t-0.361083984375-2.58984375z M94.787036132812,56.634765625q0,0.4482421875,0.136962890625,1.31982421875t0.410888671875,1.705810546875t0.709716796875,1.4443359375t1.058349609375,0.560302734375q1.31982421875-0.1494140625,2.178955078125-0.859130859375t1.39453125-1.730712890625t0.7470703125-2.21630859375t0.211669921875-2.26611328125q0-1.36962890625-0.535400390625-2.291015625t-1.755615234375-1.494140625q0,0.0498046875,0.0498046875,0.0498046875t0.0498046875-0.0498046875l-0.62255859375-0.1494140625q-0.2490234375-0.099609375-0.610107421875-0.22412109375t-0.709716796875-0.5478515625q-0.97119140625,0.3486328125-1.506591796875,0.896484375t-0.809326171875,1.332275390625t-0.336181640625,1.880126953125t-0.062255859375,2.6396484375z M109.99415039062,49.23876953125q0-1.02099609375,0.361083984375-1.71826171875t1.531494140625-0.697265625q0.4482421875,0,1.12060546875,0.136962890625t0.77197265625,0.684814453125q0.2490234375,1.46923828125,0.27392578125,3.1875t0.17431640625,3.2373046875q0.57275390625-1.12060546875,1.46923828125-2.41552734375t2.0419921875-2.390625t2.490234375-1.81787109375t2.7392578125-0.72216796875q0.099609375,0,0.37353515625,0.07470703125t0.510498046875,0.211669921875t0.286376953125,0.311279296875t-0.27392578125,0.32373046875q-0.099609375,0.298828125-0.42333984375,0.361083984375t-0.57275390625,0.062255859375q-0.1494140625,0-0.47314453125-0.12451171875q-1.8427734375,0.97119140625-3.1376953125,2.6396484375t-2.11669921875,3.697998046875t-1.1953125,4.283203125t-0.37353515625,4.395263671875q0,1.07080078125-0.485595703125,1.294921875t-1.556396484375,0.22412109375q-0.57275390625,0-1.207763671875-0.12451171875t-0.884033203125-0.796875q-0.4482421875-1.41943359375-0.734619140625-3.26220703125t-0.435791015625-3.797607421875t-0.211669921875-3.847412109375t-0.062255859375-3.41162109375z"/><path fill="#" d=""/></svg>
