<?xml version="1.0"?>
<svg version="1.1" xmlns="http://www.w3.org/2000/svg" width="130px" height="60px" style=""><path fill="#34313D" d="M0.86376953125,29.8095703125q0-0.49560546875,0.33984375-0.630126953125t0.736328125-0.134521484375q0.69384765625,0,1.17529296875,0.623046875t0.913330078125,1.366455078125t0.856689453125,1.366455078125t1.00537109375,0.623046875q0.43896484375,0,0.800048828125-0.219482421875t0.623046875-0.55224609375t0.403564453125-0.75048828125t0.1416015625-0.828369140625q0-1.076171875-0.431884765625-2.22314453125t-1.1044921875-2.36474609375t-1.423095703125-2.4921875t-1.416015625-2.59130859375t-1.1044921875-2.683349609375t-0.43896484375-2.754150390625q0-2.08154296875,1.24609375-3.228515625t3.28515625-1.14697265625q0.69384765625,0,1.40185546875,0.1982421875t1.302734375,0.5947265625t0.969970703125,0.97705078125t0.375244140625,1.359375q0,0.2548828125-0.375244140625,0.332763671875t-0.545166015625,0.077880859375q-0.2548828125,0-0.55224609375-0.063720703125t-0.38232421875-0.346923828125t-0.24072265625-0.6513671875t-0.389404296875-0.686767578125t-0.55224609375-0.55224609375t-0.700927734375-0.233642578125q-0.63720703125,0-1.083251953125,0.261962890625t-0.72216796875,0.700927734375t-0.41064453125,0.984130859375t-0.134521484375,1.125732421875q0,1.359375,0.46728515625,2.739990234375t1.1611328125,2.7470703125t1.508056640625,2.697509765625t1.508056640625,2.59130859375t1.1611328125,2.4638671875t0.46728515625,2.27978515625q0,0.962890625-0.453125,1.62841796875t-1.14697265625,1.083251953125t-1.536376953125,0.60888671875t-1.649658203125,0.191162109375q-0.86376953125,0-1.77001953125-0.346923828125t-1.62841796875-0.955810546875t-1.189453125-1.423095703125t-0.46728515625-1.762939453125z M13.603237304688,26.93505859375q0-1.01953125,0.261962890625-2.046142578125t0.814208984375-1.8408203125t1.408935546875-1.323974609375t2.017822265625-0.509765625q0.49560546875,0,1.09033203125,0.120361328125t1.097412109375,0.38232421875t0.849609375,0.6796875t0.346923828125,1.026611328125q0,0.38232421875-0.1982421875,0.509765625t-0.52392578125,0.12744140625l-0.09912109375-0.1416015625t-0.276123046875-0.361083984375t-0.375244140625-0.46728515625t-0.38232421875-0.417724609375q-0.58056640625-0.58056640625-1.09033203125-0.623046875l-0.11328125,0q-0.4248046875,0-0.79296875,0.2548828125q-0.41064453125,0.3115234375-0.729248046875,0.8779296875t-0.531005859375,1.20361328125t-0.332763671875,1.28857421875t-0.120361328125,1.076171875q0,0.58056640625,0.134521484375,1.323974609375t0.453125,1.408935546875t0.80712890625,1.11865234375t1.253173828125,0.453125q0.69384765625,0,1.26025390625-0.33984375t1.083251953125-0.757568359375t1.012451171875-0.75048828125t1.01953125-0.332763671875q0.2265625,0,0.460205078125,0.056640625t0.233642578125,0.29736328125l0,0.0849609375q-0.2548828125,0.66552734375-0.86376953125,1.17529296875t-1.366455078125,0.885009765625t-1.57177734375,0.559326171875t-1.451416015625,0.18408203125q-1.189453125,0-2.088623046875-0.389404296875t-1.493896484375-1.069091796875t-0.899169921875-1.635498046875t-0.304443359375-2.088623046875z M25.960380859375,26.87841796875q0-1.302734375,0.304443359375-2.555908203125t0.516845703125-2.499267578125q0.056640625-0.32568359375,0.446044921875-0.403564453125t0.658447265625-0.077880859375q0.46728515625,0,0.75048828125,0.1416015625q0.11328125,0.056640625,0.21240234375,0.12744140625t0.09912109375,0.18408203125q0,1.2177734375-0.290283203125,2.37890625t-0.290283203125,2.4638671875q0,0.43896484375,0.063720703125,0.828369140625t0.120361328125,0.771728515625l0.0849609375,0.41064453125q0,0.11328125,0.01416015625,0.1982421875t0.04248046875,0.1982421875q0,0.2548828125-0.361083984375,0.346923828125t-0.630126953125,0.092041015625q-0.41064453125,0-0.757568359375-0.162841796875t-0.545166015625-0.559326171875l-0.1982421875-0.41064453125q-0.169921875-0.32568359375-0.169921875-0.729248046875t-0.07080078125-0.743408203125z M26.866630859375,18.35400390625l0-0.26904296875q0-0.66552734375,0.332763671875-1.189453125t0.998291015625-0.52392578125q0.0849609375,0,0.162841796875,0.01416015625t0.162841796875,0.01416015625q0.169921875,0.0283203125,0.446044921875,0.134521484375t0.276123046875,0.332763671875l0,0.0283203125q-0.056640625,0.11328125-0.07080078125,0.233642578125t-0.07080078125,0.205322265625l0.0283203125-0.0283203125q-0.169921875,0.43896484375-0.276123046875,0.7080078125t-0.233642578125,0.431884765625t-0.318603515625,0.233642578125t-0.545166015625,0.07080078125q-0.056640625,0-0.1982421875-0.01416015625t-0.304443359375-0.056640625t-0.276123046875-0.11328125t-0.11328125-0.21240234375z M32.143696289063,23.56494140625q0-0.58056640625,0.33984375-0.998291015625t0.828369140625-0.6796875t1.069091796875-0.389404296875t1.076171875-0.12744140625q0.38232421875,0,1.01953125,0.11328125t1.24609375,0.33984375t1.054931640625,0.5947265625t0.446044921875,0.86376953125q0,0.2265625-0.169921875,0.403564453125t-0.35400390625,0.177001953125q-0.38232421875,0-0.69384765625-0.247802734375t-0.644287109375-0.52392578125t-0.729248046875-0.52392578125t-0.89208984375-0.247802734375t-0.899169921875,0.318603515625t-0.403564453125,0.842529296875q0,0.86376953125,0.60888671875,1.692138671875t1.338134765625,1.74169921875t1.338134765625,1.918701171875t0.60888671875,2.22314453125q0,0.52392578125-0.219482421875,0.885009765625t-0.58056640625,0.587646484375t-0.814208984375,0.346923828125t-0.8779296875,0.120361328125q-0.46728515625,0-1.09033203125-0.219482421875t-1.17529296875-0.58056640625t-0.927490234375-0.842529296875t-0.375244140625-1.00537109375q0-0.2548828125,0.361083984375-0.32568359375t0.531005859375-0.07080078125q0.0849609375,0,0.261962890625,0.056640625t0.346923828125,0.12744140625t0.304443359375,0.15576171875t0.106201171875,0.18408203125q0.1416015625,0.169921875,0.431884765625,0.502685546875t0.58056640625,0.5380859375t0.509765625,0.148681640625t0.219482421875-0.63720703125q0-1.1044921875-0.5947265625-2.031982421875t-1.295654296875-1.8125t-1.295654296875-1.755859375t-0.5947265625-1.862060546875z M42.12193359375,23.56494140625q0-0.58056640625,0.33984375-0.998291015625t0.828369140625-0.6796875t1.069091796875-0.389404296875t1.076171875-0.12744140625q0.38232421875,0,1.01953125,0.11328125t1.24609375,0.33984375t1.054931640625,0.5947265625t0.446044921875,0.86376953125q0,0.2265625-0.169921875,0.403564453125t-0.35400390625,0.177001953125q-0.38232421875,0-0.69384765625-0.247802734375t-0.644287109375-0.52392578125t-0.729248046875-0.52392578125t-0.89208984375-0.247802734375t-0.899169921875,0.318603515625t-0.403564453125,0.842529296875q0,0.86376953125,0.60888671875,1.692138671875t1.338134765625,1.74169921875t1.338134765625,1.918701171875t0.60888671875,2.22314453125q0,0.52392578125-0.219482421875,0.885009765625t-0.58056640625,0.587646484375t-0.814208984375,0.346923828125t-0.8779296875,0.120361328125q-0.46728515625,0-1.09033203125-0.219482421875t-1.17529296875-0.58056640625t-0.927490234375-0.842529296875t-0.375244140625-1.00537109375q0-0.2548828125,0.361083984375-0.32568359375t0.531005859375-0.07080078125q0.0849609375,0,0.261962890625,0.056640625t0.346923828125,0.12744140625t0.304443359375,0.15576171875t0.106201171875,0.18408203125q0.1416015625,0.169921875,0.431884765625,0.502685546875t0.58056640625,0.5380859375t0.509765625,0.148681640625t0.219482421875-0.63720703125q0-1.1044921875-0.5947265625-2.031982421875t-1.295654296875-1.8125t-1.295654296875-1.755859375t-0.5947265625-1.862060546875z M51.816967773437,27.4873046875q0-0.80712890625,0.205322265625-1.663818359375t0.6513671875-1.54345703125t1.125732421875-1.11865234375t1.642578125-0.431884765625q0.72216796875,0,1.522216796875,0.247802734375t1.465576171875,0.7080078125t1.083251953125,1.125732421875t0.417724609375,1.48681640625q0,0.9912109375-0.361083984375,1.88330078125t-1.012451171875,1.593017578125t-1.522216796875,1.1044921875t-1.890380859375,0.403564453125q-0.83544921875,0-1.45849609375-0.304443359375t-1.040771484375-0.814208984375t-0.623046875-1.20361328125t-0.205322265625-1.47265625z M53.898510742187,27.458984375q0,0.2548828125,0.077880859375,0.75048828125t0.233642578125,0.969970703125t0.403564453125,0.8212890625t0.601806640625,0.318603515625q0.75048828125-0.0849609375,1.239013671875-0.488525390625t0.79296875-0.984130859375t0.4248046875-1.26025390625t0.120361328125-1.28857421875q0-0.77880859375-0.304443359375-1.302734375t-0.998291015625-0.849609375q0,0.0283203125,0.0283203125,0.0283203125t0.0283203125-0.0283203125l-0.35400390625-0.0849609375q-0.1416015625-0.056640625-0.346923828125-0.12744140625t-0.403564453125-0.3115234375q-0.55224609375,0.1982421875-0.856689453125,0.509765625t-0.460205078125,0.757568359375t-0.191162109375,1.069091796875t-0.035400390625,1.5009765625z M62.545693359375,23.25341796875q0-0.58056640625,0.205322265625-0.97705078125t0.870849609375-0.396484375q0.2548828125,0,0.63720703125,0.077880859375t0.43896484375,0.389404296875q0.1416015625,0.83544921875,0.15576171875,1.8125t0.09912109375,1.8408203125q0.32568359375-0.63720703125,0.83544921875-1.37353515625t1.1611328125-1.359375t1.416015625-1.03369140625t1.5576171875-0.41064453125q0.056640625,0,0.21240234375,0.04248046875t0.290283203125,0.120361328125t0.162841796875,0.177001953125t-0.15576171875,0.18408203125q-0.056640625,0.169921875-0.24072265625,0.205322265625t-0.32568359375,0.035400390625q-0.0849609375,0-0.26904296875-0.07080078125q-1.0478515625,0.55224609375-1.7841796875,1.5009765625t-1.20361328125,2.102783203125t-0.6796875,2.435546875t-0.21240234375,2.499267578125q0,0.60888671875-0.276123046875,0.736328125t-0.885009765625,0.12744140625q-0.32568359375,0-0.686767578125-0.07080078125t-0.502685546875-0.453125q-0.2548828125-0.80712890625-0.417724609375-1.85498046875t-0.247802734375-2.159423828125t-0.120361328125-2.187744140625t-0.035400390625-1.93994140625z"/><path fill="#" d=""/></svg>
